<?xml version="1.0" encoding="UTF-8"?>
<svg width="40px" height="40px" viewBox="0 0 40 40" version="1.1" xmlns="http://www.w3.org/2000/svg" xmlns:xlink="http://www.w3.org/1999/xlink">
    <!-- Generator: Sketch 48.2 (47327) - http://www.bohemiancoding.com/sketch -->
    <title>成功表情</title>
    <desc>Created with Sketch.</desc>
    <defs></defs>
    <g id="分享成功" stroke="none" stroke-width="1" fill="none" fill-rule="evenodd" transform="translate(-168.000000, -478.000000)">
        <g id="浮层" fill="#000000" fill-rule="nonzero">
            <g id="成功表情" transform="translate(168.000000, 478.000000)">
                <path d="M20,0 C8.95428001,0 0,8.95428001 0,20 C0,31.04572 8.95428001,40 20,40 C31.04572,40 40,31.04572 40,20 C40,8.95428001 31.04568,0 20,0 Z M20,38.4 C9.83796,38.4 1.60000001,30.16204 1.60000001,20 C1.60000001,9.83796 9.83796,1.60000001 20,1.60000001 C30.16204,1.60000001 38.4,9.83796 38.4,20 C38.3999999,30.16204 30.16204,38.4 20,38.4 Z" id="Shape"></path>
                <path d="M3,33.5 C3.015129,33.3330078 3.035301,33.166748 3.0524475,33 C3.0176505,33.1643066 3,33.3312986 3,33.5 Z" id="Shape"></path>
                <path d="M20.00002,0 C8.95429212,0 0,8.95428316 0,20 C0,31.0457569 8.95433218,40 20.00002,40 C31.0457078,40 40,31.0457569 40,20 C40,8.95428316 31.0457078,0 20.00002,0 Z M20.00002,37.91197 C10.1074849,37.91197 2.08799204,29.8925652 2.08799204,19.9999599 C2.08799204,10.1074347 10.1074448,2.08798995 20.00002,2.08798995 C29.8925551,2.08798995 37.9119679,10.1074347 37.9119679,19.9999599 C37.9119679,29.8925652 29.8925551,37.91197 20.00002,37.91197 Z" id="Shape"></path>
                <path d="M28.9992126,21.0036143 C28.99937,20.9826496 29,20.9617641 29,20.9407597 L28.9956297,20.9407597 C28.9482652,20.4133113 28.5080078,20 27.9717222,20 C27.4037421,20 26.9433656,20.4634048 26.9433656,21.0350813 C26.9433656,21.0526775 26.9438381,21.0701944 26.9446649,21.0875527 C26.866984,24.8817808 23.7879776,27.9336815 20.0000394,27.9336815 C16.2088727,27.9336815 13.1279764,24.8766684 13.0550989,21.0781998 C13.0551383,21.0752275 13.0553352,21.0722551 13.0553352,21.0692432 C13.0553352,21.0510526 13.0548627,21.0329809 13.0539178,21.0150281 C13.0537996,21.0052788 13.0534059,20.9956089 13.0533666,20.9858597 C13.0526579,20.9837592 13.0519492,20.9817381 13.0512405,20.9796773 C13.0060808,20.4504058 12.5651935,20.0349149 12.0276479,20.0349149 C11.5033313,20.0349149 11.0711058,20.430194 11.0081894,20.9407597 L11,20.9407597 C11,20.9694128 11.0008268,20.9977886 11.001063,21.0263625 C11.0004725,21.04059 11,21.0548572 11,21.0692432 C11,21.0922292 11.0009843,21.1149377 11.0024804,21.1375273 C11.1065405,26.0499033 15.0948033,30 20,30 C24.9188194,30 28.9153109,26.0279081 28.9980314,21.0965489 C28.9991732,21.0761786 28.9999607,21.0557687 28.9999607,21.0350813 C29,21.0244998 28.9995275,21.0140769 28.9992126,21.0036143 Z" id="Shape"></path>
                <path d="M10,12 C10,13.1045695 10.8954305,14 12,14 C13.1045695,14 14,13.1045695 14,12 C14,10.8954305 13.1045695,10 12,10 C10.8954305,10 10,10.8954305 10,12 Z" id="Shape"></path>
                <path d="M26,13 C26,14.1045695 26.8954305,15 28,15 C29.1045695,15 30,14.1045695 30,13 C30,11.8954305 29.1045695,11 28,11 C26.8954305,11 26,11.8954305 26,13 Z" id="Shape"></path>
            </g>
        </g>
    </g>
</svg>